<mxfile host="app.diagrams.net" modified="2021-06-01T15:35:43.492Z" agent="5.0 (Windows NT 10.0; Win64; x64) AppleWebKit/537.36 (KHTML, like Gecko) Chrome/90.0.4430.212 Safari/537.36" etag="61xhFKk7tjdaQKqsT13L" version="14.7.3" type="github">
  <diagram id="Be8DhfWcPOG7k-E0nlYe" name="Page-1">
    <mxGraphModel dx="1038" dy="633" grid="1" gridSize="10" guides="1" tooltips="1" connect="1" arrows="1" fold="1" page="1" pageScale="1" pageWidth="827" pageHeight="1169" math="0" shadow="0">
      <root>
        <mxCell id="0" />
        <mxCell id="1" parent="0" />
        <mxCell id="lxlMOXura0frBfN5w6pP-1" value="" style="aspect=fixed;html=1;points=[];align=center;image;fontSize=12;image=img/lib/mscae/Cache_Redis_Product.svg;" parent="1" vertex="1">
          <mxGeometry x="540" y="90" width="83.33" height="70" as="geometry" />
        </mxCell>
        <mxCell id="lxlMOXura0frBfN5w6pP-3" value="list: lpush lpop rpush rpop lrang rrang" style="rounded=0;whiteSpace=wrap;html=1;align=left;" parent="1" vertex="1">
          <mxGeometry x="50" y="40" width="230" height="50" as="geometry" />
        </mxCell>
        <mxCell id="lxlMOXura0frBfN5w6pP-4" value="Sting:set mset setnt" style="rounded=0;whiteSpace=wrap;html=1;" parent="1" vertex="1">
          <mxGeometry x="50" y="100" width="120" height="60" as="geometry" />
        </mxCell>
        <mxCell id="N9RUkKTewgJPUTX3TEn4-1" value="&lt;pre style=&quot;background-color: #2b2b2b ; color: #a9b7c6 ; font-family: &amp;quot;consolas&amp;quot; , monospace ; font-size: 12.0pt&quot;&gt;&lt;br&gt;&lt;span style=&quot;color: #494acc&quot;&gt;public class &lt;/span&gt;SubscriptionTest {&lt;br&gt;    &lt;span style=&quot;color: #494acc&quot;&gt;static final &lt;/span&gt;String[] &lt;span style=&quot;color: #9876aa ; font-style: italic&quot;&gt;subList &lt;/span&gt;= {&lt;span style=&quot;color: #6a8759&quot;&gt;&quot;hxm&quot;&lt;/span&gt;&lt;span style=&quot;color: #cc7832&quot;&gt;, &lt;/span&gt;&lt;span style=&quot;color: #6a8759&quot;&gt;&quot;dyz&quot;&lt;/span&gt;&lt;span style=&quot;color: #cc7832&quot;&gt;, &lt;/span&gt;&lt;span style=&quot;color: #6a8759&quot;&gt;&quot;zyt&quot;&lt;/span&gt;}&lt;span style=&quot;color: #cc7832&quot;&gt;;&lt;br&gt;&lt;/span&gt;&lt;span style=&quot;color: #cc7832&quot;&gt;    &lt;/span&gt;&lt;span style=&quot;color: #494acc&quot;&gt;public static void &lt;/span&gt;&lt;span style=&quot;color: #ffc66d&quot;&gt;main&lt;/span&gt;(String[] args) {&lt;br&gt;        Jedis jedis = &lt;span style=&quot;color: #494acc&quot;&gt;new &lt;/span&gt;Jedis(&lt;span style=&quot;color: #6a8759&quot;&gt;&quot;119.29.4.88&quot;&lt;/span&gt;&lt;span style=&quot;color: #cc7832&quot;&gt;, &lt;/span&gt;&lt;span style=&quot;color: #6897bb&quot;&gt;6379&lt;/span&gt;)&lt;span style=&quot;color: #cc7832&quot;&gt;;&lt;br&gt;&lt;/span&gt;&lt;span style=&quot;color: #cc7832&quot;&gt;        &lt;/span&gt;jedis.connect()&lt;span style=&quot;color: #cc7832&quot;&gt;;&lt;br&gt;&lt;/span&gt;&lt;span style=&quot;color: #cc7832&quot;&gt;        &lt;/span&gt;jedis.auth(&lt;span style=&quot;color: #6a8759&quot;&gt;&quot;root&quot;&lt;/span&gt;)&lt;span style=&quot;color: #cc7832&quot;&gt;;&lt;br&gt;&lt;/span&gt;&lt;span style=&quot;color: #cc7832&quot;&gt;        &lt;/span&gt;List&amp;lt;String&amp;gt; hxm = jedis.lrange(&lt;span style=&quot;color: #6a8759&quot;&gt;&quot;hxm&quot;&lt;/span&gt;&lt;span style=&quot;color: #cc7832&quot;&gt;, &lt;/span&gt;&lt;span style=&quot;color: #6897bb&quot;&gt;1&lt;/span&gt;&lt;span style=&quot;color: #cc7832&quot;&gt;, &lt;/span&gt;&lt;span style=&quot;color: #6897bb&quot;&gt;2&lt;/span&gt;)&lt;span style=&quot;color: #cc7832&quot;&gt;;&lt;br&gt;&lt;/span&gt;&lt;span style=&quot;color: #cc7832&quot;&gt;        &lt;/span&gt;List&amp;lt;String&amp;gt; lrange = &lt;span style=&quot;color: #494acc&quot;&gt;new &lt;/span&gt;LinkedList&amp;lt;&amp;gt;()&lt;span style=&quot;color: #cc7832&quot;&gt;;&lt;br&gt;&lt;/span&gt;&lt;span style=&quot;color: #cc7832&quot;&gt;        &lt;/span&gt;Arrays.&lt;span style=&quot;font-style: italic&quot;&gt;stream&lt;/span&gt;(&lt;span style=&quot;color: #9876aa ; font-style: italic&quot;&gt;subList&lt;/span&gt;).forEach(&lt;br&gt;                i -&amp;gt; {&lt;br&gt;                    &lt;span style=&quot;color: #b389c5&quot;&gt;lrange&lt;/span&gt;.addAll(&lt;span style=&quot;color: #b389c5&quot;&gt;jedis&lt;/span&gt;.lrange(i&lt;span style=&quot;color: #cc7832&quot;&gt;, &lt;/span&gt;&lt;span style=&quot;color: #6897bb&quot;&gt;0&lt;/span&gt;&lt;span style=&quot;color: #cc7832&quot;&gt;, &lt;/span&gt;&lt;span style=&quot;color: #6897bb&quot;&gt;5&lt;/span&gt;))&lt;span style=&quot;color: #cc7832&quot;&gt;;&lt;br&gt;&lt;/span&gt;&lt;span style=&quot;color: #cc7832&quot;&gt;                &lt;/span&gt;}&lt;br&gt;        )&lt;span style=&quot;color: #cc7832&quot;&gt;;&lt;br&gt;&lt;/span&gt;&lt;span style=&quot;color: #808080&quot;&gt;//        Lists.&lt;br&gt;&lt;/span&gt;&lt;span style=&quot;color: #808080&quot;&gt;        &lt;/span&gt;Object[] sortArray =  lrange.toArray()&lt;span style=&quot;color: #cc7832&quot;&gt;;&lt;br&gt;&lt;/span&gt;&lt;span style=&quot;color: #cc7832&quot;&gt;        &lt;/span&gt;Arrays.&lt;span style=&quot;font-style: italic&quot;&gt;sort&lt;/span&gt;(sortArray&lt;span style=&quot;color: #cc7832&quot;&gt;, &lt;/span&gt;(a&lt;span style=&quot;color: #cc7832&quot;&gt;, &lt;/span&gt;b) -&amp;gt; {&lt;br&gt;            String c1 = (String) a&lt;span style=&quot;color: #cc7832&quot;&gt;;&lt;br&gt;&lt;/span&gt;&lt;span style=&quot;color: #cc7832&quot;&gt;            &lt;/span&gt;String c2 = (String) b&lt;span style=&quot;color: #cc7832&quot;&gt;;&lt;br&gt;&lt;/span&gt;&lt;span style=&quot;color: #cc7832&quot;&gt;            &lt;/span&gt;String s = c1.split(&lt;span style=&quot;color: #6a8759&quot;&gt;&quot;&lt;/span&gt;&lt;span style=&quot;color: #6a8759 ; background-color: #364135&quot;&gt;_&lt;/span&gt;&lt;span style=&quot;color: #6a8759&quot;&gt;&quot;&lt;/span&gt;)[&lt;span style=&quot;color: #6897bb&quot;&gt;1&lt;/span&gt;]&lt;span style=&quot;color: #cc7832&quot;&gt;;&lt;br&gt;&lt;/span&gt;&lt;span style=&quot;color: #cc7832&quot;&gt;            &lt;/span&gt;String s2 = c2.split(&lt;span style=&quot;color: #6a8759&quot;&gt;&quot;&lt;/span&gt;&lt;span style=&quot;color: #6a8759 ; background-color: #364135&quot;&gt;_&lt;/span&gt;&lt;span style=&quot;color: #6a8759&quot;&gt;&quot;&lt;/span&gt;)[&lt;span style=&quot;color: #6897bb&quot;&gt;1&lt;/span&gt;]&lt;span style=&quot;color: #cc7832&quot;&gt;;&lt;br&gt;&lt;/span&gt;&lt;span style=&quot;color: #cc7832&quot;&gt;            &lt;/span&gt;&lt;span style=&quot;color: #494acc&quot;&gt;return &lt;/span&gt;Integer.&lt;span style=&quot;font-style: italic&quot;&gt;parseInt&lt;/span&gt;(s) - Integer.&lt;span style=&quot;font-style: italic&quot;&gt;parseInt&lt;/span&gt;(s2)&lt;span style=&quot;color: #cc7832&quot;&gt;;&lt;br&gt;&lt;/span&gt;&lt;span style=&quot;color: #cc7832&quot;&gt;        &lt;/span&gt;})&lt;span style=&quot;color: #cc7832&quot;&gt;;&lt;br&gt;&lt;/span&gt;&lt;span style=&quot;color: #cc7832&quot;&gt;        &lt;/span&gt;List&amp;lt;Object&amp;gt; lists = Arrays.&lt;span style=&quot;font-style: italic&quot;&gt;asList&lt;/span&gt;(sortArray)&lt;span style=&quot;color: #cc7832&quot;&gt;;&lt;br&gt;&lt;/span&gt;&lt;span style=&quot;color: #cc7832&quot;&gt;        &lt;/span&gt;List&amp;lt;String&amp;gt; collect = lists.stream().map(i -&amp;gt; i.toString()).limit(&lt;span style=&quot;color: #6897bb&quot;&gt;5&lt;/span&gt;).collect(Collectors.&lt;span style=&quot;font-style: italic&quot;&gt;toList&lt;/span&gt;())&lt;span style=&quot;color: #cc7832&quot;&gt;;&lt;br&gt;&lt;/span&gt;&lt;span style=&quot;color: #cc7832&quot;&gt;        &lt;/span&gt;System.&lt;span style=&quot;color: #9876aa ; font-style: italic&quot;&gt;out&lt;/span&gt;.println(collect)&lt;span style=&quot;color: #cc7832&quot;&gt;;&lt;br&gt;&lt;/span&gt;&lt;span style=&quot;color: #cc7832&quot;&gt;    &lt;/span&gt;}&lt;br&gt;}&lt;/pre&gt;" style="text;whiteSpace=wrap;html=1;" vertex="1" parent="1">
          <mxGeometry x="20" y="260" width="1150" height="590" as="geometry" />
        </mxCell>
      </root>
    </mxGraphModel>
  </diagram>
</mxfile>
